<?xml version="1.0" encoding="UTF-8"?>
<svg width="512px" height="512px" viewBox="0 0 512 512" version="1.1" xmlns="http://www.w3.org/2000/svg" xmlns:xlink="http://www.w3.org/1999/xlink">
    <!-- Generator: Sketch 51.3 (57544) - http://www.bohemiancoding.com/sketch -->
    <title>@2xtag (3)</title>
    <desc>Created with Sketch.</desc>
    <defs></defs>
    <g id="Page-1" stroke="none" stroke-width="1" fill="none" fill-rule="evenodd">
        <g id="123-copy-14" transform="translate(-120.000000, -2128.000000)" fill="#006DF0" fill-rule="nonzero">
            <g id="tag-(3)" transform="translate(120.000000, 2128.000000)">
                <path d="M177.800781,206.921875 C181.710938,203.011719 181.710938,196.679688 177.800781,192.78125 C173.902344,188.871094 167.570312,188.871094 163.660156,192.78125 C159.75,196.679688 159.75,203.011719 163.660156,206.921875 C167.570312,210.820312 173.902344,210.820312 177.800781,206.921875 Z" id="Shape"></path>
                <path d="M304.007812,56.574219 C301.355469,56.574219 298.8125,57.625 296.9375,59.5 L191.949219,164.488281 C188.042969,168.394531 188.042969,174.726562 191.949219,178.632812 C195.855469,182.539062 202.1875,182.539062 206.089844,178.632812 L304.007812,80.714844 L431.28125,207.992188 L206.78125,432.492188 L79.503906,305.21875 L149.523438,235.199219 C153.429688,231.296875 153.429688,224.964844 149.523438,221.058594 C145.617188,217.15625 139.285156,217.15625 135.378906,221.058594 L58.292969,298.148438 C54.386719,302.050781 54.386719,308.382812 58.292969,312.289062 L199.710938,453.707031 C203.617188,457.613281 209.945312,457.613281 213.851562,453.707031 L452.496094,215.0625 C456.402344,211.15625 456.402344,204.824219 452.496094,200.917969 L311.078125,59.5 C309.203125,57.625 306.660156,56.574219 304.007812,56.574219 Z" id="Shape"></path>
                <path d="M494.925781,2.933594 L452.003906,45.851562 C426.960938,26.941406 392.378906,26.632812 367.546875,45.070312 L332.390625,8.894531 C332.355469,8.859375 332.324219,8.828125 332.289062,8.792969 C320.625,-2.871094 301.65625,-2.996094 289.851562,8.808594 L8.792969,291.078125 C-2.929688,302.800781 -2.933594,321.785156 8.792969,333.511719 L48.457031,373.171875 C39.597656,398.527344 45.988281,427.273438 65.359375,446.636719 C84.726562,466.011719 113.472656,472.398438 138.828125,463.546875 L178.492188,503.207031 C190.214844,514.929688 209.207031,514.925781 220.90625,503.222656 L503.207031,222.132812 C514.933594,210.40625 514.933594,191.433594 503.207031,179.710938 C503.171875,179.675781 503.140625,179.644531 503.105469,179.609375 L466.933594,144.460938 C485.304688,119.796875 485.234375,85.199219 466.148438,59.996094 L509.066406,17.078125 C512.972656,13.171875 512.972656,6.839844 509.066406,2.933594 C505.160156,-0.972656 498.832031,-0.972656 494.925781,2.933594 Z M446.144531,138 C444.253906,139.894531 443.199219,142.464844 443.214844,145.144531 C443.234375,147.820312 444.328125,150.378906 446.246094,152.242188 L489.105469,193.894531 C492.984375,197.816406 492.941406,204.113281 489.078125,207.972656 L206.78125,489.0625 C202.878906,492.964844 196.53125,492.964844 192.632812,489.0625 L148.28125,444.714844 C146.367188,442.796875 143.804688,441.785156 141.210938,441.785156 C139.773438,441.785156 138.324219,442.09375 136.964844,442.730469 C117.734375,451.753906 94.640625,447.640625 79.503906,432.492188 C64.355469,417.355469 60.242188,394.265625 69.265625,375.035156 C71.054688,371.21875 70.265625,366.695312 67.285156,363.714844 L22.9375,319.367188 C19.035156,315.464844 19.035156,309.121094 22.949219,305.203125 L304.011719,22.933594 C307.902344,19.046875 314.191406,19.023438 318.105469,22.890625 L359.753906,65.75 C363.488281,69.59375 369.882812,69.96875 374,65.855469 C391.117188,48.730469 417.921875,46.902344 437.667969,60.1875 L423,74.855469 C411.847656,69.542969 398.074219,71.492188 388.855469,80.710938 C377.160156,92.410156 377.160156,111.445312 388.855469,123.140625 C400.578125,134.863281 419.5625,134.867188 431.289062,123.140625 C440.71875,113.710938 442.371094,99.878906 437.15625,88.984375 L451.820312,74.320312 C465.003906,93.835938 463.484375,120.664062 446.144531,138 Z M417.144531,94.851562 C421.046875,98.753906 421.0625,105.082031 417.144531,109 C413.238281,112.90625 406.90625,112.90625 403,109 C399.097656,105.097656 399.097656,98.75 402.996094,94.851562 C406.898438,90.957031 413.246094,90.949219 417.144531,94.851562 Z" id="Shape"></path>
            </g>
        </g>
    </g>
</svg>