<?xml version="1.0" encoding="iso-8859-1"?>
<!-- Generator: Adobe Illustrator 19.0.0, SVG Export Plug-In . SVG Version: 6.00 Build 0)  -->
<svg xmlns="http://www.w3.org/2000/svg" xmlns:xlink="http://www.w3.org/1999/xlink" version="1.1" id="Capa_1" x="0px" y="0px" viewBox="0 0 512.002 512.002" style="enable-background:new 0 0 512.002 512.002;" xml:space="preserve" width="512px" height="512px">
<g>
	<g>
		<path d="M173.001,316.222c-5.52,0-10,4.47-10,10c0,5.52,4.48,10,10,10c5.52,0,10-4.48,10-10    C183.001,320.692,178.521,316.222,173.001,316.222z" fill="#006DF0"/>
	</g>
</g>
<g>
	<g>
		<path d="M482.001,123.002h-22.29l23.5-23.499l0.001-0.001l0.001-0.001l14.134-14.144C506.796,75.919,512,63.363,512,50.002    c0-13.361-5.204-25.918-14.646-35.349C487.911,5.204,475.356,0,462.001,0s-25.91,5.204-35.349,14.649l-14.147,14.137    c-0.002,0.002-0.003,0.003-0.005,0.005l-94.212,94.211H30.001c-16.542,0-30,13.458-30,30v329c0,16.542,13.458,30,30,30h452    c16.542,0,30-13.458,30-30v-329C512.001,136.46,498.543,123.002,482.001,123.002z M440.795,28.791    C446.46,23.122,453.991,20,462.001,20s15.541,3.122,21.214,8.798c5.666,5.659,8.786,13.189,8.786,21.204    c0,8.015-3.12,15.545-8.793,21.211l-7.069,7.075l-21.106-21.106c-0.035-0.036-0.065-0.076-0.101-0.112l-21.214-21.207    L440.795,28.791z M419.571,50.005l42.427,42.427L315.946,238.476c-6.595-19.997-22.422-35.823-42.419-42.419L419.571,50.005z     M245.666,195.637c-0.259,0.259-0.5,0.536-0.73,0.822c-0.068,0.085-0.13,0.173-0.194,0.26c-0.157,0.209-0.307,0.423-0.448,0.644    c-0.062,0.098-0.121,0.197-0.18,0.296c-0.136,0.232-0.262,0.47-0.38,0.713c-0.042,0.088-0.087,0.174-0.127,0.263    c-0.136,0.305-0.259,0.617-0.365,0.938c-0.008,0.025-0.021,0.049-0.029,0.074l-0.012,0.039c-0.009,0.03-0.02,0.059-0.029,0.089    l-28.249,87.722c-1.173,3.642-0.165,7.634,2.597,10.283c1.895,1.817,4.386,2.783,6.924,2.783c1.16,0,2.331-0.202,3.458-0.618    l84.85-31.29c0.052-0.019,0.1-0.046,0.152-0.065c0.219-0.085,0.434-0.179,0.645-0.279c0.104-0.049,0.209-0.097,0.311-0.15    c0.208-0.107,0.409-0.224,0.608-0.344c0.098-0.059,0.197-0.115,0.293-0.178c0.203-0.133,0.397-0.277,0.59-0.424    c0.082-0.063,0.167-0.12,0.247-0.185c0.262-0.214,0.515-0.438,0.755-0.677c0.003-0.003,0.007-0.006,0.01-0.009l83.347-83.342    h52.293v266h-309v-266H258.3L245.666,195.637z M259.843,213.255c20.098,3.093,35.994,19.088,38.949,39.231l-58.533,21.585    L259.843,213.255z M492.001,482.002c0,5.514-4.486,10-10,10h-452c-5.514,0-10-4.486-10-10v-329c0-5.514,4.486-10,10-10h268.29    l-19.997,20H133.001c-5.522,0-10,4.477-10,10v286c0,5.523,4.478,10,10,10h329c5.522,0,10-4.477,10-10v-286c0-5.523-4.478-10-10-10    h-42.292l20.001-20h42.291c5.514,0,10,4.486,10,10V482.002z" fill="#006DF0"/>
	</g>
</g>
<g>
	<g>
		<path d="M93.001,183.002h-40c-5.522,0-10,4.477-10,10c0,5.523,4.478,10,10,10h40c5.522,0,10-4.477,10-10    C103.001,187.479,98.524,183.002,93.001,183.002z" fill="#006DF0"/>
	</g>
</g>
<g>
	<g>
		<path d="M93.001,223.002h-40c-5.522,0-10,4.477-10,10c0,5.523,4.478,10,10,10h40c5.522,0,10-4.477,10-10    C103.001,227.479,98.524,223.002,93.001,223.002z" fill="#006DF0"/>
	</g>
</g>
<g>
	<g>
		<path d="M93.001,386.002h-40c-5.522,0-10,4.477-10,10s4.478,10,10,10h40c5.522,0,10-4.477,10-10S98.524,386.002,93.001,386.002z" fill="#006DF0"/>
	</g>
</g>
<g>
	<g>
		<path d="M93.001,426.002h-40c-5.522,0-10,4.477-10,10s4.478,10,10,10h40c5.522,0,10-4.477,10-10S98.524,426.002,93.001,426.002z" fill="#006DF0"/>
	</g>
</g>
<g>
	<g>
		<path d="M73.001,286.002c-16.542,0-30,13.458-30,30s13.458,30,30,30c16.542,0,30-13.458,30-30S89.543,286.002,73.001,286.002z     M73.001,326.002c-5.514,0-10-4.486-10-10c0-5.514,4.486-10,10-10c5.514,0,10,4.486,10,10    C83.001,321.516,78.515,326.002,73.001,326.002z" fill="#006DF0"/>
	</g>
</g>
<g>
	<g>
		<path d="M429.388,339.376c-3.721-4.081-10.047-4.372-14.127-0.65c-14.348,13.084-35.176,13.084-49.523,0    c-21.975-20.04-51.502-20.039-73.477,0c-14.348,13.085-32.176,13.084-46.527-0.003c-7.32-6.669-15.478-11.192-24.247-13.444    c-5.354-1.375-10.798,1.847-12.171,7.197c-1.374,5.349,1.85,10.799,7.198,12.173c5.573,1.431,10.873,4.41,15.749,8.853    c10.988,10.021,23.861,15.031,36.738,15.03c12.874-0.001,25.753-5.011,36.738-15.029c14.349-13.085,32.177-13.084,46.523,0    c10.634,9.698,24.214,15.039,38.238,15.039c14.024,0,27.604-5.341,38.238-15.039C432.819,349.782,433.11,343.457,429.388,339.376z    " fill="#006DF0"/>
	</g>
</g>
<g>
</g>
<g>
</g>
<g>
</g>
<g>
</g>
<g>
</g>
<g>
</g>
<g>
</g>
<g>
</g>
<g>
</g>
<g>
</g>
<g>
</g>
<g>
</g>
<g>
</g>
<g>
</g>
<g>
</g>
</svg>
