<?xml version="1.0" encoding="UTF-8"?>
<svg width="34px" height="32px" viewBox="0 0 34 32" version="1.1" xmlns="http://www.w3.org/2000/svg" xmlns:xlink="http://www.w3.org/1999/xlink">
    <!-- Generator: Sketch 51.1 (57501) - http://www.bohemiancoding.com/sketch -->
    <title>login</title>
    <desc>Created with Sketch.</desc>
    <defs></defs>
    <g id="Page-1" stroke="none" stroke-width="1" fill="none" fill-rule="evenodd">
        <g id="oks-01" transform="translate(-817.000000, -1003.000000)" fill="#000000">
            <g id="Group-35" transform="translate(129.000000, 840.000000)">
                <g id="Group-33" transform="translate(0.000000, 124.000000)">
                    <g id="login" transform="translate(688.000000, 39.000000)">
                        <g id="Group-3" transform="translate(0.000000, 9.000000)">
                            <path d="M19.1678571,14.2792727 C18.945,14.5061818 18.945,14.8756364 19.1678571,15.1025455 C19.2792857,15.2167273 19.425,15.2734545 19.5728571,15.2734545 C19.7178571,15.2734545 19.8628571,15.2167273 19.9742857,15.1025455 L26.8328571,8.12 C26.8857143,8.06909091 26.9271429,8.00363636 26.9557143,7.93236364 C27.0142857,7.79054545 27.0142857,7.62836364 26.9557143,7.48654545 C26.9271429,7.41527273 26.8857143,7.34981818 26.8328571,7.296 L19.9742857,0.315636364 C19.7514286,0.0887272727 19.3914286,0.0887272727 19.1678571,0.315636364 C18.945,0.543272727 18.945,0.912727273 19.1678571,1.13963636 L25.05,7.12872727 L0.991749594,7.12872727 C0.676035309,7.12872727 0.419606737,7.38690909 0.419606737,7.70763636 C0.419606737,8.032 0.676035309,8.29018182 0.991749594,8.29018182 L25.05,8.29018182 L19.1678571,14.2792727 Z" id="Fill-1"></path>
                        </g>
                        <path d="M33.4387,0 L12.5648258,0 C12.2538543,0 12,0.256422848 12,0.572130086 L12,12.5725765 C12,12.8875695 12.2538543,13.1411352 12.5648258,13.1411352 C12.8757973,13.1411352 13.1296516,12.8875695 13.1296516,12.5725765 L13.1296516,1.14426017 L32.8738742,1.14426017 L32.8738742,30.8557398 L13.1296516,30.8557398 L13.1296516,19.4274235 C13.1296516,19.1124305 12.8757973,18.8552934 12.5648258,18.8552934 C12.2538543,18.8552934 12,19.1124305 12,19.4274235 L12,31.4278699 C12,31.7428629 12.2538543,32 12.5648258,32 L33.4387,32 C33.7496715,32 34,31.7428629 34,31.4278699 L34,0.572130086 C34,0.256422848 33.7496715,0 33.4387,0 Z" id="Fill-4"></path>
                    </g>
                </g>
            </g>
        </g>
    </g>
</svg>