<?xml version="1.0" encoding="UTF-8"?>
<svg width="46px" height="46px" viewBox="0 0 46 46" version="1.1" xmlns="http://www.w3.org/2000/svg" xmlns:xlink="http://www.w3.org/1999/xlink" fill="#ffffff">
    <!-- Generator: Sketch 51.1 (57501) - http://www.bohemiancoding.com/sketch -->
    <title>@2xtelemarketer</title>
    <desc>Created with Sketch.</desc>
    <defs>
        <polygon id="path-1" points="0.00538011696 0 0.00538011696 29 22.9594226 29 45.9134652 29 45.9134652 0"></polygon>
    </defs>
    <g id="Page-1" stroke="none" stroke-width="1" fill="ffffff" fill-rule="evenodd">
        <g id="oks-08" transform="translate(-763.000000, -138.000000)">
            <g id="Group-9" transform="translate(763.000000, 138.000000)">
                <g id="telemarketer">
                    <path d="M24,29 C22.2619688,29 21,28.1600066 21,27.0000469 C21,25.8399934 22.2619688,25 24,25 C25.7380312,25 27,25.8399934 27,27.0000469 C27,28.1600066 25.7380312,29 24,29" id="Fill-1" fill="#ffffff"></path>
                    <path d="M13.4579548,21.1918041 C13.5755674,21.1918041 13.6893832,21.2111855 13.7954243,21.253952 C14.0808225,21.3723333 14.325811,21.5955381 14.3990364,21.8983613 C15.7471063,27.3782974 19.4056625,31.0587647 23.4999548,31.0587647 C27.5943375,31.0587647 31.2528033,27.3782974 32.6008732,21.8983613 C32.674189,21.5955381 32.8882602,21.3490392 33.1756471,21.2325687 C33.4629437,21.1160982 33.7869433,21.1452159 34.0473002,21.3101854 C34.3636157,21.376246 35.0713705,20.3260098 35.0713705,18.4411899 C35.0713705,17.7773081 34.9769007,17.1386313 34.7956453,16.5951327 C34.7416755,16.4300722 34.7320025,16.2515448 34.7686152,16.0806608 C34.9750023,15.135339 35.0713705,14.3433398 35.0713705,13.5881925 C35.0713705,7.16484544 29.8815905,1.94114436 23.4999548,1.94114436 C17.1183191,1.94114436 11.9285391,7.16484544 11.9285391,13.5881925 C11.9285391,14.3433398 12.0249977,15.135339 12.2293959,16.0806608 C12.2679975,16.2515448 12.2583245,16.4281614 12.2024562,16.5951327 C12.0230993,17.1386313 11.9285391,17.7773081 11.9285391,18.4411899 C11.9285391,20.3201863 12.6537415,21.3529519 12.8928539,21.3529519 C13.058741,21.2481284 13.2592519,21.1918041 13.4579548,21.1918041 Z M23.4999548,33 C18.7498887,33 14.5321077,29.1370017 12.7790382,23.2921854 C11.1860701,23.199009 10,21.1452159 10,18.4411899 C10,17.6724847 10.1022443,16.9192482 10.2931727,16.2437194 C10.0944698,15.2653674 10,14.4171347 10,13.5881925 C10,6.09531885 16.0576361,0 23.4999548,0 C30.9423639,0 37,6.09531885 37,13.5881925 C37,14.4171347 36.9054398,15.2653674 36.7068273,16.2437194 C36.8977557,16.9192482 37,17.6724847 37,18.4411899 C37,21.1452159 35.8139299,23.199009 34.2208714,23.2921854 C32.4678019,29.1370017 28.2500209,33 23.4999548,33 Z" id="Fill-2" fill="#ffffff"></path>
                    <path d="M32.5146738,18 C32.1417424,18 31.7992271,17.7700312 31.6450952,17.406 C31.6088814,17.322 30.9086873,15.6499687 30.6822169,13.9699687 C26.6919134,13.698 22.5627306,11.6440312 20.5133473,9.51403125 C20.3401273,9.83203125 20.1270364,10.122 19.8758584,10.3840312 C18.3516653,11.982 15.9273882,11.9980312 14.6867513,12 C14.4089036,12.6700312 14.2909856,14.8459687 14.4355734,16.9279687 C14.4565346,17.2300312 14.344236,17.5279687 14.1330182,17.7340313 C13.917965,17.9419687 13.6287893,18.0319688 13.3433598,17.988 C13.3299803,17.9860312 12.0303844,17.7820313 10.9514612,17.7820313 C10.426271,17.7820313 10,17.334 10,16.782 C10,16.23 10.426271,15.7819688 10.9514612,15.7819688 C11.4671073,15.7819688 12.0151318,15.822 12.4775275,15.8659687 C12.4223147,14.058 12.5099059,11.472 13.3623587,10.5100312 C13.7124558,10.1140312 14.1691429,10.002 14.7000416,10.0000312 C15.8455948,10.0000312 17.6076756,9.93796875 18.5343401,8.96596875 C18.97961,8.502 19.1946633,7.85803125 19.1946633,7.00003125 C19.1946633,6.44803125 19.6208451,6 20.1460352,6 C20.6712254,6 21.0974964,6.44803125 21.0974964,7.00003125 C21.2078327,8.004 25.9783398,12 31.5632126,12 C32.0884028,12 32.5146738,12.4480312 32.5146738,13.0000312 C32.5146738,13.9879687 32.8800235,15.2080312 33.1387831,15.9439688 L34.9712401,15.786 C35.492684,15.7420313 35.9550797,16.1500312 35.9969129,16.7020312 C36.0387462,17.2519688 35.6505622,17.736 35.1273343,17.7799688 L32.5927209,17.9980312 C32.5660511,18 32.5413436,18 32.5146738,18" id="Fill-3" fill="#ffffff"></path>
                    <path d="M19.9999766,19 L18.0000234,19 C17.4480277,19 17,18.5520555 17,18.0000469 C17,17.4480383 17.4480277,17 18.0000234,17 L19.9999766,17 C20.5519723,17 21,17.4480383 21,18.0000469 C21,18.5520555 20.5519723,19 19.9999766,19" id="Fill-4" fill="#ffffff"></path>
                    <g id="Group-8" transform="translate(0.000000, 17.000000)">
                        <mask id="mask-2" fill="ffffff">
                            <use xlink:href="#path-1"></use>
                        </mask>
                        <g id="Clip-6"></g>
                        <path d="M27.739076,1.93330312 L25.8260858,1.93330312 C25.298117,1.93330312 24.8696803,1.50029688 24.8696803,0.966696875 C24.8696803,0.433096875 25.298117,0 25.8260858,0 L27.739076,0 C28.2670448,0 28.6954815,0.433096875 28.6954815,0.966696875 C28.6954815,1.50029688 28.2670448,1.93330312 27.739076,1.93330312" id="Fill-5" fill="#ffffff" mask="url(#mask-2)"></path>
                        <path d="M2.18423782,27.0666969 L18.6392359,27.0666969 L13.8703002,15.8243031 L4.87573099,20.3696 C4.12394932,20.7485031 3.57876413,21.4387031 3.37593372,22.2604 L2.18423782,27.0666969 Z M21.634885,27.0666969 L24.2804678,27.0666969 L23.0581053,24.5997031 C22.8916803,24.2633031 22.9357076,23.8592969 23.1671423,23.5634969 C23.8730136,22.6683031 24.8696803,21.0636969 24.8696803,20.3 C24.8696803,19.4280969 23.5325419,19.3333031 22.9566901,19.3333031 C22.3809279,19.3333031 21.0437895,19.4280969 21.0437895,20.3 C21.0437895,21.0578969 22.0595556,22.6954 22.7482105,23.5634969 C22.9816179,23.8573031 23.0236725,24.2633031 22.8572476,24.5997031 L21.634885,27.0666969 Z M27.276117,27.0666969 L43.7312047,27.0666969 L42.5413021,22.2604 C42.3385614,21.4368 41.7914035,20.7466 41.0415945,20.3676969 L32.0469357,15.8224 L27.276117,27.0666969 Z M44.9554503,29 L0.958019493,29 C0.66345809,29 0.384140351,28.8627031 0.202382066,28.6288 C0.0207134503,28.3948969 -0.0424132554,28.0874969 0.0283352827,27.7994 L1.51468226,21.7925031 C1.855154,20.4218 2.76573879,19.2734 4.01679532,18.6412 L13.9200663,13.6377031 C14.1553567,13.5198 14.428846,13.5043031 14.6775867,13.5952 C14.9262378,13.6860969 15.1232398,13.8774969 15.2285107,14.123 L20.1542768,25.7404 L20.8792476,24.2768969 C20.2403587,23.3875031 19.1308889,21.6494969 19.1308889,20.3 C19.1308889,18.5116969 20.5980468,17.4 22.9566901,17.4 C25.3153333,17.4 26.7825809,18.5116969 26.7825809,20.3 C26.7825809,21.6494969 25.6731111,23.3875031 25.0341326,24.273 L25.759193,25.7365031 L30.6849591,14.1191031 C30.79023,13.8736 30.987232,13.6822 31.235883,13.5913031 C31.4845341,13.5024 31.7581131,13.5159031 31.9934035,13.6338969 L41.8966745,18.6373031 C43.1457583,19.2695031 44.0582261,20.4179031 44.3987875,21.7886969 L45.8851345,27.7955031 C45.955883,28.0836 45.8927563,28.391 45.7110877,28.6249031 C45.5293294,28.8627031 45.2500117,29 44.9554503,29 Z" id="Fill-7" fill="#ffffff" mask="url(#mask-2)"></path>
                    </g>
                    <path d="M25.9999403,28 C25.4479388,28 25,27.5520585 25,27.0000536 C25,26.4480486 25.4479388,26.0000134 25.9999403,26.0000134 C28.2040091,26.0000134 34.0000256,24.7700024 34.0000256,21.9999464 C34.0000256,21.4479415 34.4480581,21 34.9999659,21 C35.5519675,21 36,21.4479415 36,21.9999464 C36,26.5779873 28.6699479,28 25.9999403,28" id="Fill-9" fill="#ffffff"></path>
                </g>
            </g>
        </g>
    </g>
</svg>