<?xml version="1.0" encoding="UTF-8"?>
<svg width="31px" height="31px" viewBox="0 0 31 31" version="1.1" xmlns="http://www.w3.org/2000/svg" xmlns:xlink="http://www.w3.org/1999/xlink">
    <!-- Generator: Sketch 51.1 (57501) - http://www.bohemiancoding.com/sketch -->
    <title>edit</title>
    <desc>Created with Sketch.</desc>
    <defs>
        <polygon id="path-1" points="0 0 1.4619781e-17 31 31 31 31 0"></polygon>
    </defs>
    <g id="Page-1" stroke="none" stroke-width="1" fill="none" fill-rule="evenodd">
        <g id="oks-01" transform="translate(-1316.000000, -716.000000)">
            <g id="Group-30" transform="translate(1297.000000, 697.000000)">
                <g id="edit" transform="translate(19.000000, 19.000000)">
                    <mask id="mask-2" fill="white">
                        <use xlink:href="#path-1"></use>
                    </mask>
                    <g id="Clip-2"></g>
                    <path d="M29.5229412,1.4775932 C27.5528281,-0.492531066 24.3504299,-0.492531066 22.3803167,1.4775932 L2.14755656,21.7097665 C2.1370362,21.7209882 2.13142534,21.73221 2.12300905,21.7427304 C2.11248869,21.7567577 2.10126697,21.7700835 2.09004525,21.7841108 C2.06058824,21.8275952 2.0381448,21.8717809 2.02201357,21.9180708 C2.01640271,21.9349035 2.00798643,21.9454239 2.005181,21.9622566 C2.00237557,21.9678675 2.00027149,21.972777 1.99746606,21.9783879 L0.0140271493,30.3098603 C0.00561085973,30.3484352 0.00280542986,30.3863087 0.00280542986,30.4220782 C0.00280542986,30.4304945 0,30.4389109 0,30.4438204 C0,30.5097484 0.0140271493,30.5700654 0.0357692308,30.6303825 C0.0413800905,30.6444098 0.0462895928,30.6577356 0.0519004525,30.6717628 C0.0792533937,30.7320799 0.115022624,30.7895916 0.164117647,30.8358814 C0.216719457,30.8905876 0.279140271,30.9319679 0.347873303,30.959321 C0.416606335,30.9866741 0.487443439,31 0.5589819,31 C0.602466063,31 0.646651584,30.9978959 0.690135747,30.9866741 L9.02156109,29.003224 C9.03839367,29.0004186 9.04891403,28.9920022 9.06574661,28.9863913 C9.08468326,28.9814818 9.10151584,28.9730655 9.12045249,28.9646491 C9.16113122,28.9457124 9.19690045,28.9232688 9.23266968,28.8959157 C9.24669683,28.8853953 9.26002262,28.8769789 9.27404977,28.8657572 C9.27895928,28.8608476 9.28457014,28.8580422 9.28737557,28.8524313 L29.5229412,8.61955667 C31.4923529,6.65013377 31.4923529,3.44421066 29.5229412,1.4775932 Z M28.7311086,2.26943026 C30.1254072,3.66654223 30.2460407,5.86110216 29.0951131,7.39778506 L23.6020814,1.90472231 C25.1422624,0.7537882 27.3340045,0.874422367 28.7311086,2.26943026 Z M25.9530317,10.6030068 L20.3968778,5.04752289 L21.1915158,4.25568584 L26.7448643,9.80906566 L25.9530317,10.6030068 Z M2.78368778,28.2169978 C2.5641629,27.9974717 2.21067873,27.9974717 1.98904977,28.2169978 L1.56402715,28.6413215 L2.99690045,22.6222377 L5.47900452,22.3459013 L5.16128959,25.2193791 C5.15848416,25.2411213 5.16690045,25.2607594 5.16690045,25.2825016 C5.16690045,25.3042438 5.15848416,25.3238819 5.16128959,25.3428187 C5.16128959,25.3617554 5.17251131,25.3785881 5.17531674,25.3947194 C5.18373303,25.4276834 5.19144796,25.457842 5.20547511,25.4880005 C5.2188009,25.5237699 5.23563348,25.5567339 5.25737557,25.5896979 C5.27420814,25.617051 5.2931448,25.6387932 5.31208145,25.6605354 C5.33943439,25.690694 5.36959276,25.7124362 5.40255656,25.7376852 C5.42710407,25.7538165 5.45165158,25.7699478 5.47900452,25.783975 C5.51477376,25.8001063 5.55615385,25.8113281 5.59472851,25.8197445 C5.61647059,25.8253553 5.63260181,25.8358758 5.65434389,25.8386812 C5.67678733,25.8414867 5.69572398,25.8442921 5.71746606,25.8442921 L5.72027149,25.8442921 C5.7399095,25.8442921 5.75884615,25.8414867 5.78058824,25.8386812 L8.65475113,25.5209645 L8.37771493,28.0030826 L2.35866516,29.435964 L2.78368778,29.010939 C3.00251131,28.7921142 3.00251131,28.4358226 2.78368778,28.2169978 Z M9.82461538,25.1429307 L22.3803167,12.5871583 C22.5998416,12.3676322 22.5998416,12.0113406 22.3803167,11.7925158 C22.1614932,11.5729897 21.808009,11.5729897 21.5884842,11.7925158 L9.03278281,24.3482882 L6.35359729,24.6470681 L6.65167421,21.9678675 L19.2080769,9.41139373 C19.4269005,9.19256896 19.4269005,8.8390828 19.2080769,8.61955667 C18.988552,8.4007319 18.6350679,8.4007319 18.4162443,8.61955667 L5.85773756,21.1760304 L4.07138009,21.373113 L19.6050452,5.84146404 L25.1583937,11.3948439 L9.62753394,26.9292982 L9.82461538,25.1429307 Z M27.5395023,9.0172286 L21.9833484,3.46104333 L22.7779864,2.66640083 L28.3334389,8.2225861 L27.5395023,9.0172286 Z" id="Fill-1" fill="#FFFFFF" mask="url(#mask-2)"></path>
                </g>
            </g>
        </g>
    </g>
</svg>