<?xml version="1.0" encoding="UTF-8"?>
<svg width="29px" height="31px" viewBox="0 0 29 31" version="1.1" xmlns="http://www.w3.org/2000/svg" xmlns:xlink="http://www.w3.org/1999/xlink">
    <!-- Generator: Sketch 51.1 (57501) - http://www.bohemiancoding.com/sketch -->
    <title>Fill 1</title>
    <desc>Created with Sketch.</desc>
    <defs></defs>
    <g id="Page-1" stroke="none" stroke-width="1" fill="none" fill-rule="evenodd">
        <g id="oks-01" transform="translate(-1108.000000, -64.000000)" fill="#7E879E">
            <g id="Group-16" transform="translate(928.000000, 64.000000)">
                <g id="share-(1)" transform="translate(180.000000, 0.000000)">
                    <path d="M23.4937376,19.915646 C21.7243495,19.915646 20.1467515,20.7651506 19.1374976,22.0782701 L10.6865933,17.3216717 C10.8846115,16.7487107 10.9932021,16.1307721 10.9932021,15.4934424 C10.9932021,14.8497564 10.8846115,14.2384156 10.6803653,13.6591786 L19.1247223,8.90853429 C20.1274288,10.2282516 21.7118935,11.0844345 23.4875096,11.0844345 C26.5151116,11.0844345 28.9872246,8.59956499 28.9872246,5.54205632 C28.9872246,2.48454764 26.5216589,0 23.4875096,0 C20.4533603,0 17.9877946,2.48454764 17.9877946,5.54205632 C17.9877946,6.18574235 18.0963852,6.80368095 18.3006313,7.37664198 L9.86258222,12.1269645 C8.85979587,10.8008908 7.27565054,9.95138613 5.49971503,9.95138613 C2.47211308,9.95138613 0,12.4359338 0,15.4934424 C0,18.5509511 2.47211308,21.0357401 5.50626241,21.0357401 C7.28187853,21.0357401 8.86602386,20.1796377 9.87535759,18.853564 L18.3199541,23.6104843 C18.1153885,24.1898017 18.0005699,24.8139358 18.0005699,25.4576218 C18.0005699,28.5088546 20.4661356,31 23.500285,31 C26.5344343,31 29,28.5151305 29,25.4576218 C29,22.4001132 26.5278869,19.915646 23.4937376,19.915646 Z M23.4937376,1.74438916 C25.5762819,1.74438916 27.2690178,3.4500767 27.2690178,5.5486541 C27.2690178,7.64690966 25.5762819,9.3525972 23.4937376,9.3525972 C21.4115127,9.3525972 19.7188566,7.64690966 19.7188566,5.5486541 C19.7188566,3.4500767 21.4177407,1.74438916 23.4937376,1.74438916 Z M5.50626241,19.2977074 C3.42371813,19.2977074 1.73106203,17.5920199 1.73106203,15.4934424 C1.73106203,13.3951064 3.42371813,11.6894189 5.50626241,11.6894189 C7.5884873,11.6894189 9.2811434,13.3951064 9.2811434,15.4934424 C9.2811434,17.5920199 7.58225931,19.2977074 5.50626241,19.2977074 Z M23.4937376,29.2556913 C21.4115127,29.2556913 19.7188566,27.5496015 19.7188566,25.4513459 C19.7188566,23.3527685 21.4115127,21.647081 23.4937376,21.647081 C25.5762819,21.647081 27.2690178,23.3527685 27.2690178,25.4513459 C27.2690178,27.5496015 25.5762819,29.2556913 23.4937376,29.2556913 Z" id="Fill-1"></path>
                </g>
            </g>
        </g>
    </g>
</svg>