<svg width="34" height="34" xmlns="http://www.w3.org/2000/svg"><path d="M14.63 17.908a1.695 1.695 0 1 1-3.39 0 1.695 1.695 0 0 1 3.39 0zm6.877-1.694a1.694 1.694 0 1 0 0 3.389 1.694 1.694 0 0 0 0-3.389zm7.237 6.897v-.193a14.905 14.905 0 0 1-.678 1.62c.047.319.133.764.277 1.273.697 1.077 2.662 2.45 4.01 2.803a4.6 4.6 0 0 1-2.454.305 7.32 7.32 0 0 0 3.43 2.402c-3.624 3.266-9.595 3.339-13.768.802a8.36 8.36 0 0 1-2.34.363 8.344 8.344 0 0 1-2.34-.363c-4.174 2.537-10.144 2.464-13.768-.802a7.312 7.312 0 0 0 3.473-2.461 4.638 4.638 0 0 1-1.967-.35c.987-.259 2.305-1.065 3.215-1.902.318-.841.472-1.593.541-2.07-.25-.52-.484-1.056-.678-1.62v.193h-2.05a2.927 2.927 0 0 1-2.926-2.927v-3.22c0-1.113.62-2.08 1.534-2.575.03-4.572 1.363-8.142 3.966-10.611 2.582-2.448 6.283-3.69 11-3.69 4.716 0 8.417 1.242 10.999 3.69 2.603 2.469 3.935 6.039 3.966 10.61a2.926 2.926 0 0 1 1.535 2.576v3.22a2.927 2.927 0 0 1-2.928 2.927h-2.049zm-1.219-5.192c0-.753-.039-1.46-.096-2.147-1.32-1.208-3.736-2.119-6.783-2.44a3.674 3.674 0 0 1 1.12 1.836c-1.771-1.295-5.484-1.696-6.717-3.084-1.962-1.3-2.477-3.16-2.494-2.39-.08 3.694-2.698 6.574-5.605 6.98-.019.407-.034.817-.034 1.245 0 1.562.255 2.985.689 4.267 1.633 1.97 4.33 2.527 6.718 2.675.443-.706 1.437-1.198 2.595-1.198 1.57 0 2.843.904 2.843 2.018 0 1.114-1.273 2.018-2.843 2.018-1.207 0-2.237-.535-2.649-1.29-1.668-.097-3.502-.38-5.137-1.153 2.299 3.389 5.863 5.18 8.089 5.18 3.497 0 10.304-4.418 10.304-12.517zm1.772-3.882h1.127c-.187-7.978-4.74-12.193-13.203-12.193-8.464 0-13.017 4.215-13.204 12.193h1.127c.412-2.69 1.282-4.9 2.603-6.601 2.106-2.71 5.294-4.083 9.474-4.083 4.18 0 7.367 1.374 9.473 4.083 1.321 1.7 2.192 3.912 2.603 6.6z" fill="#7E879E" fill-rule="evenodd"/></svg>